<svg id="Capa_1" data-name="Capa 1" xmlns="http://www.w3.org/2000/svg" viewBox="0 0 56.73 59.65"><defs><style>.cls-1{fill:#fff;}.cls-2{fill:#87b8c6;}.cls-3{fill:#0f3f4c;}.cls-4{fill:#2e707b;}.cls-5{fill:#d8edf0;}.cls-6{fill:#1e3a5f;}.cls-7{fill:#a8d8db;}.cls-8{fill:#a6d9ed;}.cls-9{fill:#61b4c8;}</style></defs><circle class="cls-1" cx="30.49" cy="33.41" r="26.24"/><path class="cls-2" d="M44.06,32.51A20.08,20.08,0,0,1,24,12.45a21,21,0,0,1,.17-2.64A26.24,26.24,0,0,1,59,25.81,20,20,0,0,1,44.06,32.51Z" transform="translate(-3.64 -0.68)"/><path class="cls-3" d="M46.68,52.21a30.9,30.9,0,0,0,7.19-.85A26.24,26.24,0,1,1,23.28,10.2,25.39,25.39,0,0,0,18.1,25.51C18.1,40.24,30.92,52.21,46.68,52.21Z" transform="translate(-3.64 -0.68)"/><path class="cls-4" d="M18.45,25.51a25.07,25.07,0,0,1,5.32-15.37,19.63,19.63,0,0,0-.13,2.31A20.42,20.42,0,0,0,59.15,26.19a26.27,26.27,0,0,1-4.88,24.7,30.13,30.13,0,0,1-7.59,1C31.11,51.86,18.45,40,18.45,25.51Z" transform="translate(-3.64 -0.68)"/><path class="cls-5" d="M39.69,30c-1.2-.62-2.18-2.14-4.16-5.18-2.11-3.26-3.17-5.56-6-7.24l-.19-.11-.19-.09c-.25-.11-.76-.36-1.42-.69l-.32-.17c-.53-.28-1.14-.62-1.79-1l-.36-.21a24.93,24.93,0,0,1-3.91-2.86l-.26-.24c-.24-.24-.48-.48-.69-.73l-.12-.11A12,12,0,0,1,19.08,10a3.15,3.15,0,0,1-.24-.3,22.5,22.5,0,0,1-3-5.59c0-.12-.09-.23-.12-.34-.25-.67-.46-1.31-.64-1.91A8.59,8.59,0,0,0,13.49,4.5a5,5,0,0,0-.18.5,8.73,8.73,0,0,0-.37,2.52,8.51,8.51,0,0,0,1.49,4.82,2.73,2.73,0,0,0,.21.3,7.43,7.43,0,0,0,.87,1c.14.15.3.29.46.43a6.37,6.37,0,0,1-.63-.1,7.12,7.12,0,0,1-1.4-.43l-.32-.15a5.8,5.8,0,0,1-2.27-2,9.43,9.43,0,0,0,.85,5.35h0q.13.27.27.51a11.06,11.06,0,0,0,4.78,4.36l1.31.55L17.15,22a23.52,23.52,0,0,1-4.53-1.12,8.54,8.54,0,0,0,8.17,6.66,7.3,7.3,0,0,0,.94-.06,5.58,5.58,0,0,0,.59-.09l-.38.39-.07,0h0a7,7,0,0,1-4,.64,26.74,26.74,0,0,0,8.73,6l.41.17a32,32,0,0,0,7.09,2.14l.37.06-.28.25s-1.81,1.67-3.81,3.55a3.07,3.07,0,0,1-.26.25c-.74.7-1.5,1.42-2.2,2.11a11.43,11.43,0,0,1-2.48,1.73l-.32.17a22.9,22.9,0,0,1-9.79,2.36A13.69,13.69,0,0,1,13.18,47c.72,2,3.1,3.51,5.91,3.51a7.25,7.25,0,0,0,3.84-1.06.7.7,0,0,0,.23-.23s0,0,0-.07S20.26,51,20.26,51c0,.56-3.11,1.73-3.11,1.73s1.34,1.5,5,1.61C22.64,53.3,33.91,31.87,41,36.86h0c.2,0,.21-2,1.07-3.37,1-1.58,2.73-1.63,2.66-2.16S42.06,31.18,39.69,30Z" transform="translate(-3.64 -0.68)"/><path class="cls-6" d="M33.24,47.08" transform="translate(-3.64 -0.68)"/><circle class="cls-7" cx="46.26" cy="23.69" r="0.6"/><circle class="cls-8" cx="46.26" cy="23.69" r="0.6"/><path class="cls-9" d="M53,24.4a1.7,1.7,0,0,0-.52-.76l0,0a2.49,2.49,0,0,0-.15-.28,4.73,4.73,0,0,0-4.12-2.11,5.25,5.25,0,0,0-3,.92l-.31.25a3.77,3.77,0,0,0-.85,1s0,0,0,0a2.41,2.41,0,0,0-.15.33h0a9.07,9.07,0,0,1-.59,1,11.56,11.56,0,0,1-5,4.24,9.15,9.15,0,0,0,3,1.73l.9.31-.94.08h-.33a7.52,7.52,0,0,1-4.47-1.49A3.68,3.68,0,0,1,36,29.4a6.57,6.57,0,0,1-.59-.59,48.84,48.84,0,0,0-8.25-8.53L26.81,20A23.65,23.65,0,0,0,24,18.15L23.76,18a1,1,0,0,0-.2-.1c-.29-.13-.85-.4-1.59-.78L21.61,17c-.59-.31-1.28-.69-2-1.12l-.4-.24a27.75,27.75,0,0,1-4.36-3.18l-.29-.28c-.28-.26-.54-.53-.78-.8l-.12-.13a15.14,15.14,0,0,1-1.32-1.45l-.27-.34A24.85,24.85,0,0,1,8.7,3.18c0-.13-.1-.25-.14-.38-.28-.74-.51-1.45-.71-2.12A9.5,9.5,0,0,0,6.1,3.6C6,3.78,6,4,5.91,4.16A9.65,9.65,0,0,0,5.49,7a9.49,9.49,0,0,0,1.66,5.38l.24.33a8.57,8.57,0,0,0,1,1.11,5.8,5.8,0,0,0,.52.47,5.52,5.52,0,0,1-.71-.1,7.27,7.27,0,0,1-1.56-.49l-.36-.17a6.5,6.5,0,0,1-2.53-2.21,10.53,10.53,0,0,0,.95,6h0c.09.2.2.39.3.57a12.35,12.35,0,0,0,5.33,4.86l1.46.61-1.56-.23a27,27,0,0,1-5.06-1.24,9.51,9.51,0,0,0,9.11,7.42,9.28,9.28,0,0,0,1.06-.06,5,5,0,0,0,.66-.11l-.43.44-.08.05h0c-1.29.86-3.46.8-4.47.72A29.87,29.87,0,0,0,20.74,37l.46.2a36.45,36.45,0,0,0,7.91,2.39l.41.06-.3.28s-2,1.87-4.26,4l-.29.27c-.83.78-1.68,1.59-2.46,2.35a12,12,0,0,1-2.77,1.93l-.36.19A25.52,25.52,0,0,1,8.16,51.24a17.07,17.07,0,0,1-2.4-.16C6.57,53.33,9.22,55,12.36,55a8.18,8.18,0,0,0,4.29-1.18,1.82,1.82,0,0,0,.26-.25.23.23,0,0,0,0-.09s0,.12,0,.16c0,.63-3.24,2.95-4.21,3.37a10.21,10.21,0,0,0,7,2.58c.51-1.21,4.55-10.41,11.62-10.68l2.46-.4h0L36.66,48a13.75,13.75,0,0,0,8.23-4.41,15.46,15.46,0,0,0,3.94-8.8h0l.49-2.06h0l.09-.38s.8-5,6.8-6.23L53.1,24.5l-.06,0Z" transform="translate(-3.64 -0.68)"/><path class="cls-1" d="M52.59,25a1.51,1.51,0,0,0-.47-.68l0,0A2,2,0,0,0,52,24a4.21,4.21,0,0,0-3.69-1.89,4.7,4.7,0,0,0-2.71.82l-.28.22a3.38,3.38,0,0,0-.76.93v0c0,.09-.1.2-.14.29h0a6.67,6.67,0,0,1-.53.94,10.32,10.32,0,0,1-4.51,3.8A8.17,8.17,0,0,0,42,30.73l.81.27-.85.08h-.29a6.76,6.76,0,0,1-4-1.33l-.33-.28a5.5,5.5,0,0,1-.54-.54,43.87,43.87,0,0,0-7.39-7.63l-.29-.23a21.44,21.44,0,0,0-2.54-1.68l-.19-.11-.19-.09c-.25-.12-.76-.36-1.42-.7l-.32-.17c-.53-.28-1.14-.62-1.79-1l-.36-.22a24.86,24.86,0,0,1-3.91-2.85L18.13,14a9.35,9.35,0,0,1-.69-.72l-.12-.11a16.09,16.09,0,0,1-1.18-1.3l-.24-.31a22.44,22.44,0,0,1-3-5.59,3.4,3.4,0,0,1-.12-.34c-.25-.66-.46-1.3-.64-1.9a8.48,8.48,0,0,0-1.56,2.62,4.24,4.24,0,0,0-.18.5A8.73,8.73,0,0,0,10,9.38a8.59,8.59,0,0,0,1.49,4.82,3.15,3.15,0,0,0,.22.29,7.51,7.51,0,0,0,.87,1,4.58,4.58,0,0,0,.46.42c-.21,0-.43-.05-.63-.09a6.52,6.52,0,0,1-1.4-.44,1.87,1.87,0,0,1-.32-.15,5.78,5.78,0,0,1-2.27-2,9.45,9.45,0,0,0,.85,5.35h0l.27.51a11.14,11.14,0,0,0,4.78,4.36l1.31.54-1.41-.21a23,23,0,0,1-4.53-1.11,8.54,8.54,0,0,0,8.17,6.66,7.3,7.3,0,0,0,.94-.06,3.83,3.83,0,0,0,.59-.1l-.38.39-.07.05h0a7,7,0,0,1-4,.64,26.85,26.85,0,0,0,8.73,6l.41.18a32.65,32.65,0,0,0,7.09,2.14l.37,0-.28.26s-1.81,1.67-3.81,3.55l-.26.24L25,44.78a11,11,0,0,1-2.48,1.73l-.32.17a22.9,22.9,0,0,1-9.79,2.37,15,15,0,0,1-2.15-.15c.72,2,3.1,3.51,5.91,3.51A7.25,7.25,0,0,0,20,51.35a1,1,0,0,0,.23-.23s0,0,0-.07a.57.57,0,0,1,0,.14c0,.56-2.9,2.64-3.76,3a9.16,9.16,0,0,0,6.26,2.31c.45-1.08,4.07-9.33,10.41-9.57l2.2-.36h0l2.56-.44a12.29,12.29,0,0,0,7.37-3.95,13.84,13.84,0,0,0,3.53-7.88h0l.44-1.85h0l.08-.34s.72-4.47,6.09-5.58l-2.78-1.44-.05,0Z" transform="translate(-3.64 -0.68)"/><circle class="cls-7" cx="46.26" cy="23.69" r="0.6"/></svg>